<svg xmlns="http://www.w3.org/2000/svg" version="1.1" xmlns:xlink="http://www.w3.org/1999/xlink" xmlns:svgjs="http://svgjs.dev/svgjs" width="68" height="68"><svg width="68" height="68" viewBox="0 0 68 68" fill="none" xmlns="http://www.w3.org/2000/svg">
<path d="M68 34C68 52.7777 52.7777 68 34 68C15.2223 68 0 52.7777 0 34C0 15.2223 15.2223 0 34 0C52.7777 0 68 15.2223 68 34Z" fill="#F06543"></path>
<path d="M33.6777 44.0711L44.2843 54.6777L33.6777 65.2843L23.0711 54.6777L33.6777 44.0711Z" fill="white"></path>
<path fill-rule="evenodd" clip-rule="evenodd" d="M4.92932 51.6418L33.5711 23L62.7421 52.171C60.9407 55.0145 58.7289 57.5723 56.1901 59.7612L33.5711 37.1421L11.3531 59.3602C8.85105 57.1243 6.68196 54.5236 4.92932 51.6418Z" fill="white"></path>
<path fill-rule="evenodd" clip-rule="evenodd" d="M0.0161133 35.055L34.0711 1L67.9879 34.9168C67.8785 39.0518 67.0307 43.0028 65.5718 46.6428L34.0711 15.1421L2.46913 46.7441C1.00155 43.1166 0.141784 39.1782 0.0161133 35.055Z" fill="white"></path>
</svg><style>@media (prefers-color-scheme: light) { :root { filter: none; } }
@media (prefers-color-scheme: dark) { :root { filter: none; } }
</style></svg>