<svg width="441" height="74" viewBox="0 0 441 74" fill="none" xmlns="http://www.w3.org/2000/svg">
<path d="M68 37C68 55.7777 52.7777 71 34 71C15.2223 71 0 55.7777 0 37C0 18.2223 15.2223 3 34 3C52.7777 3 68 18.2223 68 37Z" fill="#F06543"/>
<path d="M33.6777 47.071L44.2843 57.6776L33.6777 68.2842L23.0711 57.6776L33.6777 47.071Z" fill="white"/>
<path fill-rule="evenodd" clip-rule="evenodd" d="M4.92932 54.6418L33.5711 26L62.7421 55.171C60.9407 58.0145 58.7289 60.5723 56.1901 62.7612L33.5711 40.1421L11.3531 62.3602C8.85105 60.1243 6.68196 57.5236 4.92932 54.6418Z" fill="white"/>
<path fill-rule="evenodd" clip-rule="evenodd" d="M0.0161133 38.055L34.0711 4L67.9879 37.9168C67.8785 42.0518 67.0307 46.0028 65.5718 49.6428L34.0711 18.1421L2.46913 49.7441C1.00155 46.1166 0.141784 42.1782 0.0161133 38.055Z" fill="white"/>
<path d="M85.299 43.7548L78.9976 59H75.8131L94.2428 14.7551H96.0722L114.638 59H111.182L104.813 43.7548H85.299ZM94.9881 19.769C94.3106 21.8017 93.7008 23.4956 93.1587 24.8508L86.3831 41.1123H103.729L97.0208 24.9185C95.9819 22.3889 95.3043 20.6724 94.9881 19.769ZM123.56 59V15.0261H126.676V56.1542H146.868V59H123.56ZM170.208 56.6963C175.99 56.6963 180.62 55.1379 184.098 52.0211C187.621 48.9043 189.383 44.2065 189.383 37.9278C189.383 31.649 187.395 26.6576 183.42 22.9536C179.49 19.2496 174.635 17.3976 168.853 17.3976C164.742 17.3976 161.58 17.4879 159.367 17.6686V56.222C162.077 56.5382 165.691 56.6963 170.208 56.6963ZM168.853 14.6195C175.628 14.6195 181.275 16.72 185.792 20.9209C190.354 25.0766 192.635 30.7456 192.635 37.9278C192.635 45.1099 190.535 50.5079 186.334 54.1215C182.178 57.7352 176.803 59.5421 170.208 59.5421C165.646 59.5421 160.948 59.3162 156.114 58.8645V15.0261C159.728 14.7551 163.974 14.6195 168.853 14.6195ZM206.204 59V15.0261H226.734V17.7363H209.321V33.7269H225.04V36.3694H209.321V56.1542H227.412V59H206.204ZM242.052 43.7548L235.751 59H232.566L250.996 14.7551H252.825L271.39 59H267.935L261.566 43.7548H242.052ZM251.741 19.769C251.063 21.8017 250.454 23.4956 249.912 24.8508L243.136 41.1123H260.482L253.774 24.9185C252.735 22.3889 252.057 20.6724 251.741 19.769Z" fill="white"/>
<mask id="path-6-outside-1_508_61" maskUnits="userSpaceOnUse" x="285" y="12" width="153" height="50" fill="black">
<rect fill="white" x="285" y="12" width="153" height="50"/>
<path d="M319.434 54.4603C316.453 57.9385 311.913 59.6776 305.815 59.6776C299.717 59.6776 295.177 57.9385 292.196 54.4603C289.215 50.9822 287.724 46.1714 287.724 40.0282V15.0261H290.841V40.0282C290.841 51.2758 295.832 56.8996 305.815 56.8996C315.798 56.8996 320.789 51.2758 320.789 40.0282V15.0261H323.906V40.0282C323.906 46.1714 322.416 50.9822 319.434 54.4603ZM339.742 59V14.7551H341.233L370.097 47.9557C371.136 49.1301 372.085 50.3046 372.943 51.479C373.846 52.6083 374.32 53.1955 374.366 53.2407C374.275 52.1566 374.23 50.0336 374.23 46.8716V15.0261H377.347V59.271H375.856L346.45 25.5283L342.723 20.9886C342.814 21.8921 342.859 24.0151 342.859 27.3577V59H339.742ZM413.049 59.6776C406.771 59.6776 401.508 57.4868 397.262 53.1052C393.016 48.7236 390.893 43.3709 390.893 37.0469C390.893 30.6778 393.016 25.3025 397.262 20.9209C401.508 16.5393 406.771 14.3485 413.049 14.3485C419.328 14.3485 424.59 16.5393 428.837 20.9209C433.083 25.3025 435.206 30.6778 435.206 37.0469C435.206 43.3709 433.083 48.7236 428.837 53.1052C424.59 57.4868 419.328 59.6776 413.049 59.6776ZM413.049 17.1265C407.629 17.1265 403.112 19.0463 399.498 22.8858C395.929 26.7254 394.145 31.4457 394.145 37.0469C394.145 42.6029 395.929 47.3007 399.498 51.1403C403.112 54.9346 407.629 56.8318 413.049 56.8318C418.515 56.8318 423.032 54.9346 426.601 51.1403C430.169 47.3007 431.953 42.6029 431.953 37.0469C431.953 31.4457 430.169 26.7254 426.601 22.8858C423.032 19.0463 418.515 17.1265 413.049 17.1265Z"/>
</mask>
<path d="M319.434 54.4603L320.953 55.7619L320.953 55.7619L319.434 54.4603ZM292.196 54.4603L290.678 55.7619L290.678 55.7619L292.196 54.4603ZM287.724 15.0261V13.0261C286.62 13.0261 285.724 13.9215 285.724 15.0261H287.724ZM290.841 15.0261H292.841C292.841 13.9215 291.946 13.0261 290.841 13.0261V15.0261ZM320.789 15.0261V13.0261C319.685 13.0261 318.789 13.9215 318.789 15.0261H320.789ZM323.906 15.0261H325.906C325.906 13.9215 325.011 13.0261 323.906 13.0261V15.0261ZM317.916 53.1587C315.43 56.0586 311.534 57.6776 305.815 57.6776V61.6776C312.292 61.6776 317.476 59.8183 320.953 55.7619L317.916 53.1587ZM305.815 57.6776C300.096 57.6776 296.2 56.0586 293.715 53.1587L290.678 55.7619C294.155 59.8183 299.338 61.6776 305.815 61.6776V57.6776ZM293.715 53.1587C291.136 50.1508 289.724 45.8582 289.724 40.0282H285.724C285.724 46.4847 287.293 51.8135 290.678 55.7619L293.715 53.1587ZM289.724 40.0282V15.0261H285.724V40.0282H289.724ZM287.724 17.0261H290.841V13.0261H287.724V17.0261ZM288.841 15.0261V40.0282H292.841V15.0261H288.841ZM288.841 40.0282C288.841 45.9054 290.14 50.6869 293.089 54.0093C296.078 57.3772 300.45 58.8996 305.815 58.8996V54.8996C301.198 54.8996 298.083 53.61 296.08 51.3541C294.038 49.0528 292.841 45.3986 292.841 40.0282H288.841ZM305.815 58.8996C311.181 58.8996 315.552 57.3772 318.542 54.0093C321.49 50.6869 322.789 45.9054 322.789 40.0282H318.789C318.789 45.3986 317.593 49.0528 315.55 51.3541C313.548 53.61 310.432 54.8996 305.815 54.8996V58.8996ZM322.789 40.0282V15.0261H318.789V40.0282H322.789ZM320.789 17.0261H323.906V13.0261H320.789V17.0261ZM321.906 15.0261V40.0282H325.906V15.0261H321.906ZM321.906 40.0282C321.906 45.8582 320.494 50.1508 317.916 53.1587L320.953 55.7619C324.337 51.8135 325.906 46.4847 325.906 40.0282H321.906ZM339.742 59H337.742C337.742 60.1046 338.638 61 339.742 61V59ZM339.742 14.7551V12.7551C338.638 12.7551 337.742 13.6505 337.742 14.7551H339.742ZM341.233 14.7551L342.742 13.4428C342.362 13.0059 341.812 12.7551 341.233 12.7551V14.7551ZM370.097 47.9557L368.588 49.2679C368.591 49.2722 368.595 49.2766 368.599 49.2809L370.097 47.9557ZM372.943 51.479L371.328 52.6591C371.345 52.6826 371.363 52.7057 371.381 52.7284L372.943 51.479ZM374.366 53.2407L372.951 54.6549C373.545 55.2484 374.446 55.4082 375.207 55.0551C375.969 54.7019 376.428 53.911 376.359 53.0746L374.366 53.2407ZM374.23 15.0261V13.0261C373.126 13.0261 372.23 13.9215 372.23 15.0261H374.23ZM377.347 15.0261H379.347C379.347 13.9215 378.451 13.0261 377.347 13.0261V15.0261ZM377.347 59.271V61.271C378.451 61.271 379.347 60.3756 379.347 59.271H377.347ZM375.856 59.271L374.349 60.585C374.728 61.0209 375.278 61.271 375.856 61.271V59.271ZM346.45 25.5283L344.904 26.7973C344.917 26.8125 344.929 26.8275 344.942 26.8423L346.45 25.5283ZM342.723 20.9886L344.269 19.7197C343.71 19.0384 342.771 18.8035 341.957 19.1415C341.142 19.4795 340.646 20.3106 340.733 21.1877L342.723 20.9886ZM342.859 59V61C343.963 61 344.859 60.1046 344.859 59H342.859ZM341.742 59V14.7551H337.742V59H341.742ZM339.742 16.7551H341.233V12.7551H339.742V16.7551ZM339.723 16.0673L368.588 49.2679L371.606 46.6435L342.742 13.4428L339.723 16.0673ZM368.599 49.2809C369.6 50.4123 370.509 51.5385 371.328 52.6591L374.558 50.299C373.66 49.0707 372.672 47.848 371.595 46.6306L368.599 49.2809ZM371.381 52.7284C371.833 53.2937 372.18 53.7258 372.42 54.0231C372.54 54.1713 372.636 54.2892 372.706 54.3747C372.73 54.4036 372.851 54.5548 372.951 54.6549L375.78 51.8265C375.847 51.8934 375.894 51.9519 375.857 51.9086C375.846 51.8959 375.827 51.8726 375.797 51.8357C375.737 51.7631 375.649 51.6552 375.532 51.5097C375.298 51.2198 374.956 50.7936 374.504 50.2296L371.381 52.7284ZM376.359 53.0746C376.276 52.0866 376.23 50.0455 376.23 46.8716H372.23C372.23 50.0216 372.274 52.2266 372.373 53.4068L376.359 53.0746ZM376.23 46.8716V15.0261H372.23V46.8716H376.23ZM374.23 17.0261H377.347V13.0261H374.23V17.0261ZM375.347 15.0261V59.271H379.347V15.0261H375.347ZM377.347 57.271H375.856V61.271H377.347V57.271ZM377.364 57.957L347.958 24.2143L344.942 26.8423L374.349 60.585L377.364 57.957ZM347.996 24.2593L344.269 19.7197L341.178 22.2576L344.904 26.7973L347.996 24.2593ZM340.733 21.1877C340.812 21.9708 340.859 23.9835 340.859 27.3577H344.859C344.859 24.0467 344.816 21.8133 344.713 20.7896L340.733 21.1877ZM340.859 27.3577V59H344.859V27.3577H340.859ZM342.859 57H339.742V61H342.859V57ZM397.262 53.1052L398.698 51.7134L397.262 53.1052ZM397.262 20.9209L398.698 22.3127L398.698 22.3127L397.262 20.9209ZM428.837 20.9209L430.273 19.5291L430.273 19.5291L428.837 20.9209ZM428.837 53.1052L430.273 54.497L430.273 54.497L428.837 53.1052ZM399.498 22.8858L398.042 21.5151L398.033 21.5243L399.498 22.8858ZM399.498 51.1403L398.033 52.5018C398.039 52.5078 398.044 52.5137 398.05 52.5196L399.498 51.1403ZM426.601 51.1403L428.057 52.5105L428.066 52.5018L426.601 51.1403ZM426.601 22.8858L428.066 21.5243L428.066 21.5243L426.601 22.8858ZM413.049 57.6776C407.294 57.6776 402.555 55.6937 398.698 51.7134L395.826 54.497C400.461 59.2799 406.247 61.6776 413.049 61.6776V57.6776ZM398.698 51.7134C394.828 47.7197 392.893 42.8723 392.893 37.0469H388.893C388.893 43.8694 391.204 49.7275 395.826 54.497L398.698 51.7134ZM392.893 37.0469C392.893 31.1721 394.831 26.3034 398.698 22.3127L395.826 19.5291C391.201 24.3015 388.893 30.1835 388.893 37.0469H392.893ZM398.698 22.3127C402.555 18.3324 407.294 16.3485 413.049 16.3485V12.3485C406.247 12.3485 400.461 14.7462 395.826 19.5291L398.698 22.3127ZM413.049 16.3485C418.804 16.3485 423.543 18.3324 427.4 22.3127L430.273 19.5291C425.638 14.7462 419.852 12.3485 413.049 12.3485V16.3485ZM427.4 22.3127C431.268 26.3034 433.206 31.1721 433.206 37.0469H437.206C437.206 30.1835 434.898 24.3015 430.273 19.5291L427.4 22.3127ZM433.206 37.0469C433.206 42.8723 431.27 47.7197 427.4 51.7134L430.273 54.497C434.895 49.7275 437.206 43.8694 437.206 37.0469H433.206ZM427.4 51.7134C423.543 55.6937 418.804 57.6776 413.049 57.6776V61.6776C419.852 61.6776 425.638 59.2799 430.273 54.497L427.4 51.7134ZM413.049 15.1265C407.095 15.1265 402.045 17.2614 398.042 21.5151L400.954 24.2566C404.178 20.8311 408.163 19.1265 413.049 19.1265V15.1265ZM398.033 21.5243C394.096 25.7607 392.145 30.9785 392.145 37.0469H396.145C396.145 31.9129 397.763 27.69 400.963 24.2474L398.033 21.5243ZM392.145 37.0469C392.145 43.0748 394.099 48.2686 398.033 52.5018L400.963 49.7787C397.76 46.3328 396.145 42.1311 396.145 37.0469H392.145ZM398.05 52.5196C402.055 56.7254 407.103 58.8318 413.049 58.8318V54.8318C408.155 54.8318 404.168 53.1438 400.946 49.7609L398.05 52.5196ZM413.049 58.8318C419.036 58.8318 424.091 56.7285 428.057 52.5104L425.144 49.7701C421.974 53.1408 417.994 54.8318 413.049 54.8318V58.8318ZM428.066 52.5018C432 48.2686 433.953 43.0748 433.953 37.0469H429.953C429.953 42.1311 428.338 46.3328 425.136 49.7787L428.066 52.5018ZM433.953 37.0469C433.953 30.9785 432.003 25.7607 428.066 21.5243L425.136 24.2474C428.335 27.69 429.953 31.9129 429.953 37.0469H433.953ZM428.066 21.5243C424.101 17.2584 419.044 15.1265 413.049 15.1265V19.1265C417.986 19.1265 421.963 20.8342 425.136 24.2474L428.066 21.5243Z" fill="white" mask="url(#path-6-outside-1_508_61)"/>
</svg>
