<svg width="436" height="74" viewBox="0 0 436 74" fill="none" xmlns="http://www.w3.org/2000/svg">
<path d="M68 37C68 55.7777 52.7777 71 34 71C15.2223 71 0 55.7777 0 37C0 18.2223 15.2223 3 34 3C52.7777 3 68 18.2223 68 37Z" fill="#F06543"/>
<path d="M33.6777 47.0711L44.2843 57.6777L33.6777 68.2843L23.0711 57.6777L33.6777 47.0711Z" fill="white"/>
<path fill-rule="evenodd" clip-rule="evenodd" d="M4.92932 54.6418L33.5711 26L62.7421 55.171C60.9407 58.0145 58.7289 60.5723 56.1901 62.7612L33.5711 40.1421L11.3531 62.3602C8.85105 60.1243 6.68196 57.5236 4.92932 54.6418Z" fill="white"/>
<path fill-rule="evenodd" clip-rule="evenodd" d="M0.0161133 38.055L34.0711 4L67.9879 37.9168C67.8785 42.0518 67.0307 46.0028 65.5718 49.6428L34.0711 18.1421L2.46913 49.7441C1.00155 46.1166 0.141784 42.1782 0.0161133 38.055Z" fill="white"/>
<path d="M85.299 43.7548L78.9976 59H75.8131L94.2428 14.7551H96.0722L114.638 59H111.182L104.813 43.7548H85.299ZM94.9881 19.769C94.3106 21.8017 93.7008 23.4956 93.1587 24.8508L86.3831 41.1123H103.729L97.0208 24.9185C95.9819 22.3889 95.3043 20.6724 94.9881 19.769ZM123.56 59V15.0261H126.676V56.1542H146.868V59H123.56ZM170.208 56.6963C175.99 56.6963 180.62 55.1379 184.098 52.0211C187.621 48.9043 189.383 44.2065 189.383 37.9278C189.383 31.649 187.395 26.6576 183.42 22.9536C179.49 19.2496 174.635 17.3976 168.853 17.3976C164.742 17.3976 161.58 17.4879 159.367 17.6686V56.222C162.077 56.5382 165.691 56.6963 170.208 56.6963ZM168.853 14.6195C175.628 14.6195 181.275 16.72 185.792 20.9209C190.354 25.0766 192.635 30.7456 192.635 37.9278C192.635 45.1099 190.535 50.5079 186.334 54.1215C182.178 57.7352 176.803 59.5421 170.208 59.5421C165.646 59.5421 160.948 59.3162 156.114 58.8645V15.0261C159.728 14.7551 163.974 14.6195 168.853 14.6195ZM206.204 59V15.0261H226.734V17.7363H209.321V33.7269H225.04V36.3694H209.321V56.1542H227.412V59H206.204ZM242.052 43.7548L235.751 59H232.566L250.996 14.7551H252.825L271.39 59H267.935L261.566 43.7548H242.052ZM251.741 19.769C251.063 21.8017 250.454 23.4956 249.912 24.8508L243.136 41.1123H260.482L253.774 24.9185C252.735 22.3889 252.057 20.6724 251.741 19.769Z" fill="black"/>
<mask id="path-6-outside-1_505_14" maskUnits="userSpaceOnUse" x="281" y="13" width="151" height="48" fill="black">
<rect fill="white" x="281" y="13" width="151" height="48"/>
<path d="M314.434 54.4603C311.453 57.9385 306.913 59.6776 300.815 59.6776C294.717 59.6776 290.177 57.9385 287.196 54.4603C284.215 50.9822 282.724 46.1714 282.724 40.0282V15.0261H285.841V40.0282C285.841 51.2758 290.832 56.8996 300.815 56.8996C310.798 56.8996 315.789 51.2758 315.789 40.0282V15.0261H318.906V40.0282C318.906 46.1714 317.416 50.9822 314.434 54.4603ZM334.742 59V14.7551H336.233L365.097 47.9557C366.136 49.1301 367.085 50.3046 367.943 51.479C368.846 52.6083 369.32 53.1955 369.366 53.2407C369.275 52.1566 369.23 50.0336 369.23 46.8716V15.0261H372.347V59.271H370.856L341.45 25.5283L337.723 20.9886C337.814 21.8921 337.859 24.0151 337.859 27.3577V59H334.742ZM408.049 59.6776C401.771 59.6776 396.508 57.4868 392.262 53.1052C388.016 48.7236 385.893 43.3709 385.893 37.0469C385.893 30.6778 388.016 25.3025 392.262 20.9209C396.508 16.5393 401.771 14.3485 408.049 14.3485C414.328 14.3485 419.59 16.5393 423.837 20.9209C428.083 25.3025 430.206 30.6778 430.206 37.0469C430.206 43.3709 428.083 48.7236 423.837 53.1052C419.59 57.4868 414.328 59.6776 408.049 59.6776ZM408.049 17.1265C402.629 17.1265 398.112 19.0463 394.498 22.8858C390.929 26.7254 389.145 31.4457 389.145 37.0469C389.145 42.6029 390.929 47.3007 394.498 51.1403C398.112 54.9346 402.629 56.8318 408.049 56.8318C413.515 56.8318 418.032 54.9346 421.601 51.1403C425.169 47.3007 426.953 42.6029 426.953 37.0469C426.953 31.4457 425.169 26.7254 421.601 22.8858C418.032 19.0463 413.515 17.1265 408.049 17.1265Z"/>
</mask>
<path d="M314.434 54.4603L315.193 55.1111L315.193 55.1111L314.434 54.4603ZM287.196 54.4603L286.437 55.1111L286.437 55.1111L287.196 54.4603ZM282.724 15.0261V14.0261H281.724V15.0261H282.724ZM285.841 15.0261H286.841V14.0261H285.841V15.0261ZM315.789 15.0261V14.0261H314.789V15.0261H315.789ZM318.906 15.0261H319.906V14.0261H318.906V15.0261ZM313.675 53.8095C310.942 56.9985 306.724 58.6776 300.815 58.6776V60.6776C307.103 60.6776 311.964 58.8784 315.193 55.1111L313.675 53.8095ZM300.815 58.6776C294.907 58.6776 290.689 56.9985 287.955 53.8095L286.437 55.1111C289.666 58.8784 294.528 60.6776 300.815 60.6776V58.6776ZM287.955 53.8095C285.176 50.5665 283.724 46.0148 283.724 40.0282H281.724C281.724 46.3281 283.254 51.3978 286.437 55.1111L287.955 53.8095ZM283.724 40.0282V15.0261H281.724V40.0282H283.724ZM282.724 16.0261H285.841V14.0261H282.724V16.0261ZM284.841 15.0261V40.0282H286.841V15.0261H284.841ZM284.841 40.0282C284.841 45.7787 286.114 50.2784 288.837 53.3455C291.579 56.4354 295.637 57.8996 300.815 57.8996V55.8996C296.011 55.8996 292.581 54.5518 290.332 52.0179C288.063 49.4613 286.841 45.5253 286.841 40.0282H284.841ZM300.815 57.8996C305.994 57.8996 310.051 56.4354 312.794 53.3455C315.516 50.2784 316.789 45.7787 316.789 40.0282H314.789C314.789 45.5253 313.567 49.4613 311.298 52.0179C309.049 54.5518 305.619 55.8996 300.815 55.8996V57.8996ZM316.789 40.0282V15.0261H314.789V40.0282H316.789ZM315.789 16.0261H318.906V14.0261H315.789V16.0261ZM317.906 15.0261V40.0282H319.906V15.0261H317.906ZM317.906 40.0282C317.906 46.0148 316.455 50.5665 313.675 53.8095L315.193 55.1111C318.376 51.3978 319.906 46.3281 319.906 40.0282H317.906ZM334.742 59H333.742V60H334.742V59ZM334.742 14.7551V13.7551H333.742V14.7551H334.742ZM336.233 14.7551L336.987 14.0989L336.688 13.7551H336.233V14.7551ZM365.097 47.9557L364.342 48.6118L364.348 48.6183L365.097 47.9557ZM367.943 51.479L367.135 52.0691L367.148 52.0867L367.162 52.1037L367.943 51.479ZM369.366 53.2407L368.659 53.9478L370.589 55.8782L370.362 53.1577L369.366 53.2407ZM369.23 15.0261V14.0261H368.23V15.0261H369.23ZM372.347 15.0261H373.347V14.0261H372.347V15.0261ZM372.347 59.271V60.271H373.347V59.271H372.347ZM370.856 59.271L370.102 59.928L370.401 60.271H370.856V59.271ZM341.45 25.5283L340.677 26.1628L340.686 26.1742L340.696 26.1853L341.45 25.5283ZM337.723 20.9886L338.496 20.3541L336.4 17.7999L336.728 21.0881L337.723 20.9886ZM337.859 59V60H338.859V59H337.859ZM335.742 59V14.7551H333.742V59H335.742ZM334.742 15.7551H336.233V13.7551H334.742V15.7551ZM335.478 15.4112L364.342 48.6118L365.852 47.2996L336.987 14.0989L335.478 15.4112ZM364.348 48.6183C365.368 49.7712 366.297 50.9215 367.135 52.0691L368.75 50.889C367.872 49.6876 366.904 48.4891 365.846 47.2931L364.348 48.6183ZM367.162 52.1037C367.614 52.6687 367.959 53.0993 368.198 53.3947C368.317 53.5422 368.411 53.6577 368.479 53.7399C368.523 53.7939 368.603 53.8921 368.659 53.9478L370.073 52.5336C370.106 52.5667 370.11 52.5745 370.024 52.4705C369.962 52.3946 369.872 52.2842 369.754 52.1381C369.518 51.8463 369.175 51.4186 368.724 50.8543L367.162 52.1037ZM370.362 53.1577C370.276 52.1216 370.23 50.0395 370.23 46.8716H368.23C368.23 50.0276 368.275 52.1916 368.369 53.3238L370.362 53.1577ZM370.23 46.8716V15.0261H368.23V46.8716H370.23ZM369.23 16.0261H372.347V14.0261H369.23V16.0261ZM371.347 15.0261V59.271H373.347V15.0261H371.347ZM372.347 58.271H370.856V60.271H372.347V58.271ZM371.61 58.614L342.204 24.8713L340.696 26.1853L370.102 59.928L371.61 58.614ZM342.223 24.8938L338.496 20.3541L336.95 21.6231L340.677 26.1628L342.223 24.8938ZM336.728 21.0881C336.813 21.9314 336.859 23.9993 336.859 27.3577H338.859C338.859 24.0309 338.815 21.8527 338.718 20.8891L336.728 21.0881ZM336.859 27.3577V59H338.859V27.3577H336.859ZM337.859 58H334.742V60H337.859V58ZM392.262 53.1052L392.98 52.4093L392.262 53.1052ZM392.262 20.9209L392.98 21.6168L392.98 21.6168L392.262 20.9209ZM423.837 20.9209L424.555 20.225L424.555 20.225L423.837 20.9209ZM423.837 53.1052L424.555 53.8011L424.555 53.8011L423.837 53.1052ZM394.498 22.8858L393.77 22.2004L393.765 22.205L394.498 22.8858ZM394.498 51.1403L393.765 51.8211L393.774 51.8299L394.498 51.1403ZM421.601 51.1403L422.329 51.8254L422.333 51.821L421.601 51.1403ZM421.601 22.8858L422.333 22.205L422.333 22.205L421.601 22.8858ZM408.049 58.6776C402.032 58.6776 397.032 56.5902 392.98 52.4093L391.544 53.8011C395.984 58.3833 401.509 60.6776 408.049 60.6776V58.6776ZM392.98 52.4093C388.922 48.2217 386.893 43.1216 386.893 37.0469H384.893C384.893 43.6201 387.11 49.2255 391.544 53.8011L392.98 52.4093ZM386.893 37.0469C386.893 30.925 388.923 25.8029 392.98 21.6168L391.544 20.225C387.108 24.802 384.893 30.4307 384.893 37.0469H386.893ZM392.98 21.6168C397.032 17.4359 402.032 15.3485 408.049 15.3485V13.3485C401.509 13.3485 395.984 15.6428 391.544 20.225L392.98 21.6168ZM408.049 15.3485C414.066 15.3485 419.067 17.4359 423.118 21.6168L424.555 20.225C420.114 15.6428 414.59 13.3485 408.049 13.3485V15.3485ZM423.118 21.6168C427.175 25.8029 429.206 30.925 429.206 37.0469H431.206C431.206 30.4307 428.99 24.802 424.555 20.225L423.118 21.6168ZM429.206 37.0469C429.206 43.1216 427.176 48.2217 423.118 52.4093L424.555 53.8011C428.989 49.2255 431.206 43.6201 431.206 37.0469H429.206ZM423.118 52.4093C419.067 56.5902 414.066 58.6776 408.049 58.6776V60.6776C414.59 60.6776 420.114 58.3833 424.555 53.8011L423.118 52.4093ZM408.049 16.1265C402.362 16.1265 397.578 18.1539 393.77 22.2005L395.226 23.5712C398.645 19.9387 402.896 18.1265 408.049 18.1265V16.1265ZM393.765 22.205C390.013 26.243 388.145 31.2121 388.145 37.0469H390.145C390.145 31.6793 391.846 27.2077 395.23 23.5666L393.765 22.205ZM388.145 37.0469C388.145 42.8389 390.014 47.7847 393.765 51.821L395.23 50.4595C391.845 46.8168 390.145 42.367 390.145 37.0469H388.145ZM393.774 51.8299C397.583 55.83 402.366 57.8318 408.049 57.8318V55.8318C402.892 55.8318 398.64 54.0392 395.222 50.4506L393.774 51.8299ZM408.049 57.8318C413.776 57.8318 418.561 55.8315 422.329 51.8253L420.872 50.4552C417.503 54.0377 413.254 55.8318 408.049 55.8318V57.8318ZM422.333 51.821C426.084 47.7847 427.953 42.8389 427.953 37.0469H425.953C425.953 42.367 424.254 46.8168 420.868 50.4595L422.333 51.821ZM427.953 37.0469C427.953 31.2121 426.086 26.243 422.333 22.205L420.868 23.5666C424.252 27.2077 425.953 31.6793 425.953 37.0469H427.953ZM422.333 22.205C418.566 18.1523 413.779 16.1265 408.049 16.1265V18.1265C413.25 18.1265 417.498 19.9402 420.868 23.5666L422.333 22.205Z" fill="black" mask="url(#path-6-outside-1_505_14)"/>
</svg>
